<svg height="511pt" viewBox="-26 1 511 511.99899" width="511pt" xmlns="http://www.w3.org/2000/svg"><path d="m445.328125 348.101562h-57.441406v-199.789062h18.546875c16.132812 0 29.261718-13.125 29.261718-29.257812v-74.277344c0-16.132813-13.128906-29.257813-29.261718-29.257813h-62.898438v-.386719c0-8.359374-6.777344-15.132812-15.132812-15.132812h-42.625c-8.359375 0-15.132813 6.773438-15.132813 15.132812v.386719h-80.328125v-.386719c0-8.359374-6.777344-15.132812-15.132812-15.132812h-42.625c-8.355469 0-15.132813 6.773438-15.132813 15.132812v.386719h-62.898437c-16.136719 0-29.261719 13.125-29.261719 29.257813v74.273437c0 16.132813 13.125 29.261719 29.261719 29.261719h18.546875v199.789062h-57.441407c-8.359374 0-15.132812 6.773438-15.132812 15.132813v90.277344c0 32.25 26.234375 58.488281 58.488281 58.488281h342.988281c32.25 0 58.484376-26.238281 58.484376-58.488281v-90.277344c0-8.355469-6.773438-15.132813-15.132813-15.132813zm-15.132813 30.265626v22.785156h-42.308593v-22.785156zm-24.765624-332.582032v72.261719h-61.898438v-72.261719zm-104.519532-15.519531h12.355469v87.78125h-12.355469zm-30.265625 15.519531v72.261719h-80.328125v-72.261719zm-122.953125-15.519531h12.359375v87.78125h-12.359375zm-92.160156 15.519531h61.894531v72.261719h-61.894531zm302.089844 102.527344v22.253906c0 32.839844-26.71875 59.558594-59.558594 59.558594h-135.164062c-32.839844 0-59.558594-26.71875-59.558594-59.558594v-22.253906zm-88.582032 112.074219h10.03125v30.105469l-5.019531 5.101562-5.015625-5.101562v-30.105469zm-87.148437 0h10.03125v30.105469l-5.015625 5.101562-5.019531-5.101562v-30.105469zm-108.816406 117.980469v22.785156h-42.3125v-22.785156zm-42.3125 75.144531v-22.097657h42.3125v50.320313h-14.089844c-15.558594 0-28.222656-12.660156-28.222656-28.222656zm72.578125-215.773438c13.210937 11.730469 29.886718 19.628907 48.285156 21.945313v37.003906c0 3.96875 1.558594 7.777344 4.339844 10.609375l20.152344 20.492187c2.84375 2.894532 6.730468 4.523438 10.789062 4.523438 4.054688 0 7.945312-1.628906 10.789062-4.523438l20.148438-20.492187c2.78125-2.828125 4.34375-6.640625 4.34375-10.609375v-36.300781h16.585938v36.300781c0 3.96875 1.558593 7.777344 4.34375 10.609375l20.148437 20.492187c2.84375 2.894532 6.730469 4.523438 10.789063 4.523438 4.054687 0 7.945312-1.628906 10.789062-4.523438l20.148438-20.492187c2.78125-2.832031 4.34375-6.640625 4.34375-10.609375v-37.003906c18.394531-2.316406 35.070312-10.214844 48.285156-21.945313v243.996094h-254.28125zm298.632812 243.996094h-14.089844v-50.316406h42.3125v22.097656c0 15.558594-12.660156 28.21875-28.222656 28.21875zm0 0"/><path d="m294.203125 348.101562h-127.445313c-8.359374 0-15.132812 6.777344-15.132812 15.132813v86.289063c0 8.359374 6.773438 15.132812 15.132812 15.132812h127.445313c8.355469 0 15.132813-6.773438 15.132813-15.132812v-86.289063c0-8.355469-6.777344-15.132813-15.132813-15.132813zm-15.132813 86.292969h-97.179687v-56.027343h97.179687zm0 0"/></svg>