<?xml version="1.0" encoding="iso-8859-1"?>
<!-- Generator: Adobe Illustrator 19.0.0, SVG Export Plug-In . SVG Version: 6.00 Build 0)  -->
<svg version="1.1" id="Capa_1" xmlns="http://www.w3.org/2000/svg" xmlns:xlink="http://www.w3.org/1999/xlink" x="0px" y="0px"
	 viewBox="0 0 512 512" style="enable-background:new 0 0 512 512;" xml:space="preserve">
<g>
	<g>
		<g>
			<path d="M448,298.667h-21.333V192c23.531,0,42.667-19.135,42.667-42.667v-64c0-23.531-19.135-42.667-42.667-42.667H318.921
				C313.965,18.353,292.421,0,266.667,0h-21.333c-25.754,0-47.298,18.353-52.254,42.667H85.333
				c-23.531,0-42.667,19.135-42.667,42.667v64c0,23.531,19.135,42.667,42.667,42.667v106.667H64
				c-23.531,0-42.667,19.135-42.667,42.667v64C21.333,428.865,40.469,448,64,448h21.333v21.333C85.333,492.865,104.469,512,128,512
				h256c23.531,0,42.667-19.135,42.667-42.667V448H448c23.531,0,42.667-19.135,42.667-42.667v-64
				C490.667,317.802,471.531,298.667,448,298.667z M85.333,426.667H64c-11.76,0-21.333-9.573-21.333-21.333v-64
				C42.667,329.573,52.24,320,64,320h21.333V426.667z M320,64h21.333v149.333H320V64z M320,234.667h21.333v10.667
				c0,5.885-4.781,10.667-10.667,10.667c-5.885,0-10.667-4.781-10.667-10.667V234.667z M245.333,21.333h21.333
				c13.888,0,25.617,8.944,30.035,21.333h-81.404C219.716,30.277,231.445,21.333,245.333,21.333z M213.319,64h85.348v106.667
				h-85.355C213.307,128.986,213.307,83.863,213.319,64z M170.667,64h21.326c-0.021,16.056-0.031,54.876-0.01,149.333h-21.315V64z
				 M170.667,234.667h21.32c0.001,3.642,0.001,6.887,0.003,10.677c0,2.844-1.104,5.521-3.115,7.531
				c-6.156,6.208-18.198,1.198-18.208-7.542V234.667z M85.333,170.667c-11.76,0-21.333-9.573-21.333-21.333v-64
				C64,73.573,73.573,64,85.333,64h64v106.667H85.333z M405.333,469.333c0,11.76-9.573,21.333-21.333,21.333H128
				c-11.76,0-21.333-9.573-21.333-21.333V192h42.667v21.333c-5.896,0-10.667,4.771-10.667,10.667s4.771,10.667,10.667,10.667v10.667
				c0,17.646,14.354,32,32,32c8.552,0,16.583-3.333,22.625-9.375c6.052-6.042,9.375-14.083,9.365-22.625
				c-0.001-2.971-0.001-6.652-0.003-10.667h0.013c5.896,0,10.667-4.771,10.667-10.667s-4.771-10.667-10.667-10.667h-0.017
				c0-6.634-0.001-13.862-0.003-21.333h85.353v21.333c-5.896,0-10.667,4.771-10.667,10.667s4.771,10.667,10.667,10.667v10.667
				c0,17.646,14.354,32,32,32c17.646,0,32-14.354,32-32v-10.667c5.896,0,10.667-4.771,10.667-10.667s-4.771-10.667-10.667-10.667
				V192h42.667V469.333z M362.667,170.667V64h64C438.427,64,448,73.573,448,85.333v64c0,11.76-9.573,21.333-21.333,21.333H362.667z
				 M469.333,405.333c0,11.76-9.573,21.333-21.333,21.333h-21.333V320H448c11.76,0,21.333,9.573,21.333,21.333V405.333z"/>
			<path d="M352,298.667H160c-5.896,0-10.667,4.771-10.667,10.667v128c0,5.896,4.771,10.667,10.667,10.667h192
				c5.896,0,10.667-4.771,10.667-10.667v-128C362.667,303.438,357.896,298.667,352,298.667z M327.438,320
				c-16.534,16.238-40.087,35.507-60.771,40.987V352c0-5.896-4.771-10.667-10.667-10.667s-10.667,4.771-10.667,10.667v8.987
				c-20.684-5.48-44.237-24.749-60.771-40.987H327.438z M341.333,426.667H170.667v-90.279c18.207,17.861,46.723,41.369,74.667,46.5
				v11.779c0,5.896,4.771,10.667,10.667,10.667s10.667-4.771,10.667-10.667v-11.779c27.944-5.132,56.46-28.639,74.667-46.5V426.667z
				"/>
		</g>
	</g>
</g>
<g>
</g>
<g>
</g>
<g>
</g>
<g>
</g>
<g>
</g>
<g>
</g>
<g>
</g>
<g>
</g>
<g>
</g>
<g>
</g>
<g>
</g>
<g>
</g>
<g>
</g>
<g>
</g>
<g>
</g>
</svg>
