<?xml version="1.0" encoding="utf-8"?>
<!-- Generator: Adobe Illustrator 23.0.3, SVG Export Plug-In . SVG Version: 6.00 Build 0)  -->
<svg version="1.1" id="markSvg" xmlns="http://www.w3.org/2000/svg" xmlns:xlink="http://www.w3.org/1999/xlink" x="0px" y="0px"
	 viewBox="0 0 200 52" style="enable-background:new 0 0 200 52;" xml:space="preserve">
<rect id="Rectangle-1" x="33.8" y="24.8" width="140.9" height="2.3"/>
<g>
	<path d="M179.7,35.2l8.5-18.8c0.1-0.2,0.2-0.3,0.5-0.3h0.3c0.3,0,0.4,0.1,0.5,0.3l8.5,18.8c0.2,0.4-0.1,0.7-0.5,0.7h-1.1
		c-0.3,0-0.4-0.2-0.5-0.3l-2.1-4.6h-9.9l-2,4.6c-0.1,0.1-0.2,0.3-0.5,0.3h-1.1C179.8,35.9,179.6,35.6,179.7,35.2z M193,29.3
		c-1.4-3.1-2.7-6.1-4.1-9.2h-0.2l-4.1,9.2H193z"/>
</g>
<g>
	<path d="M16,16.7c0-0.3,0.2-0.5,0.5-0.5h11c0.3,0,0.5,0.3,0.5,0.5v0.8c0,0.3-0.2,0.5-0.5,0.5h-9.4v6.8h8c0.3,0,0.5,0.3,0.5,0.5v0.8
		c0,0.3-0.3,0.5-0.5,0.5h-8v7.1h9.4c0.3,0,0.5,0.3,0.5,0.5v0.8c0,0.3-0.2,0.5-0.5,0.5h-11c-0.3,0-0.5-0.3-0.5-0.5V16.7z"/>
</g>
</svg>
